<?xml version="1.0" standalone="no"?><!DOCTYPE svg PUBLIC "-//W3C//DTD SVG 1.1//EN" "http://www.w3.org/Graphics/SVG/1.1/DTD/svg11.dtd"><svg t="1769008092591" class="icon" viewBox="0 0 1024 1024" version="1.1" xmlns="http://www.w3.org/2000/svg" p-id="31203" xmlns:xlink="http://www.w3.org/1999/xlink" width="256" height="256"><path d="M512.5 128.2c51.9 0 102.2 10.1 149.5 30.2 45.7 19.3 86.8 47 122.1 82.3s63 76.4 82.3 122.1c20 47.3 30.2 97.6 30.2 149.5s-10.1 102.2-30.2 149.5c-19.3 45.7-47 86.8-82.3 122.1s-76.4 63-122.1 82.3c-47.3 20-97.6 30.2-149.5 30.2S410.3 886.1 363 866.1c-45.7-19.3-86.8-47-122.1-82.3s-63-76.4-82.3-122.1c-20-47.3-30.2-97.6-30.2-149.5s10.1-102.2 30.2-149.5c19.3-45.7 47-86.8 82.3-122.1s76.4-63 122.1-82.3c47.3-19.9 97.6-30.1 149.5-30.1m0-64c-247.4 0-448 200.6-448 448s200.6 448 448 448 448-200.6 448-448-200.6-448-448-448z" fill="#ffffff" p-id="31204"></path><path d="M452.4 679c-17.1 0-33.2-6.7-45.3-18.7l-140-140c-12.5-12.5-12.5-32.8 0-45.3s32.8-12.5 45.3 0l140 140 260.2-260.2c12.5-12.5 32.8-12.5 45.3 0s12.5 32.8 0 45.3L497.6 660.3c-12.1 12.1-28.1 18.7-45.2 18.7z" fill="#ffffff" p-id="31205"></path></svg>