<?xml version="1.0" standalone="no"?><!DOCTYPE svg PUBLIC "-//W3C//DTD SVG 1.1//EN" "http://www.w3.org/Graphics/SVG/1.1/DTD/svg11.dtd"><svg t="1769176079827" class="icon" viewBox="0 0 1024 1024" version="1.1" xmlns="http://www.w3.org/2000/svg" p-id="10476" xmlns:xlink="http://www.w3.org/1999/xlink" width="256" height="256"><path d="M800 160a64 64 0 0 1 64 64v576a64 64 0 0 1-64 64H224a64 64 0 0 1-64-64V224a64 64 0 0 1 64-64h576z m0 64H224v576h576V224zM384 544a96 96 0 1 1 0 192 96 96 0 0 1 0-192z m352 64v64h-192v-64h192z m-352 0a32 32 0 1 0 0 64 32 32 0 0 0 0-64z m67.872-291.872l45.28 45.248-135.776 135.776-90.528-90.528 45.28-45.248 45.248 45.248L451.84 316.16zM736 384v64h-192v-64h192z" fill="#ffffff" p-id="10477"></path></svg>