<svg viewBox="0 0 1024 1024" xmlns="http://www.w3.org/2000/svg"><path d="M832 64c35.346 0 64 28.654 64 64v285h-0.014c-0.53 19.42-16.438 35-35.986 35s-35.457-15.58-35.986-35H824V136H200v752h212c19.882 0 36 16.118 36 36s-16.118 36-36 36H192c-35.346 0-64-28.654-64-64V128c0-35.346 28.654-64 64-64h640z m-76.95 471.441a43.061 43.061 0 0 1 19.587 19.527l45.865 92.623 102.58 14.856c23.551 3.411 39.894 25.238 36.463 48.77a42.992 42.992 0 0 1-12.589 24.632l-74.191 72.079 17.511 101.761c4.034 23.437-11.745 45.675-35.203 49.685a43.174 43.174 0 0 1-27.311-4.312l-91.765-48.084-91.764 48.084c-21.053 11.03-47.09 2.964-58.174-18.05a42.949 42.949 0 0 1-4.341-27.323l17.511-101.761-74.19-72.079c-17.076-16.589-17.425-43.859-0.78-60.878a43.13 43.13 0 0 1 24.654-12.524l102.58-14.856 45.864-92.623c10.542-21.29 36.366-30.018 57.694-19.527z m-19.053 85.719l-42.066 84.953-93.69 13.568 67.783 65.852-16.041 93.213 84.014-44.022 84.013 44.022-16.04-93.213 67.782-65.852-93.689-13.568-42.066-84.953zM423 672c17.673 0 32 14.327 32 32 0 17.673-14.327 32-32 32H311c-17.673 0-32-14.327-32-32 0-17.673 14.327-32 32-32h112z m58-192c17.673 0 32 14.327 32 32 0 17.673-14.327 32-32 32H311c-17.673 0-32-14.327-32-32 0-17.673 14.327-32 32-32h170z m230-192c17.673 0 32 14.327 32 32 0 17.673-14.327 32-32 32H311c-17.673 0-32-14.327-32-32 0-17.673 14.327-32 32-32h400z"/></svg>
