<?xml version="1.0" standalone="no"?><!DOCTYPE svg PUBLIC "-//W3C//DTD SVG 1.1//EN" "http://www.w3.org/Graphics/SVG/1.1/DTD/svg11.dtd"><svg t="1768985848627" class="icon" viewBox="0 0 1080 1024" version="1.1" xmlns="http://www.w3.org/2000/svg" p-id="7854" xmlns:xlink="http://www.w3.org/1999/xlink" width="270" height="256"><path d="M992.085333 27.363556h-106.609777v149.845333c0 16.952889-15.985778 29.525333-34.929778 30.264889-18.944 0.739556-34.929778-14.392889-34.929778-30.321778V27.363556H265.272889V176.924444c0 16.896-15.985778 29.468444-34.929778 30.151112-18.944 0.796444-34.929778-14.336-34.929778-30.151112V27.306667H88.803556C50.232889 27.363556 18.944 58.652444 18.944 97.28v804.807111c0 38.570667 31.288889 69.859556 69.859556 69.859556h903.281777c38.570667 0 69.859556-31.288889 69.859556-69.859556V97.223111c0-38.570667-31.288889-69.859556-69.859556-69.859555z m3.868445 862.833777a16.611556 16.611556 0 0 1-16.270222 16.327111H101.262222a16.611556 16.611556 0 0 1-16.327111-16.327111V315.847111h911.018667l0.056889 574.350222z" fill="#ffffff" p-id="7855"></path></svg>