<?xml version="1.0" standalone="no"?><!DOCTYPE svg PUBLIC "-//W3C//DTD SVG 1.1//EN" "http://www.w3.org/Graphics/SVG/1.1/DTD/svg11.dtd"><svg t="1768985028503" class="icon" viewBox="0 0 1024 1024" version="1.1" xmlns="http://www.w3.org/2000/svg" p-id="6563" xmlns:xlink="http://www.w3.org/1999/xlink" width="256" height="256"><path d="M1016.992 492 760.992 172C754.912 164.416 745.728 160 736 160L288 160C278.272 160 269.088 164.416 263.008 172L7.008 492C2.464 497.664 0 504.736 0 512L0 800C0 835.36 28.64 864 64 864L960 864C995.36 864 1024 835.36 1024 800L1024 512C1024 504.736 1021.536 497.696 1016.992 492L1016.992 492ZM960 544 736 544 608 672 416 672 288 544 64 544 64 523.232 303.392 224 720.64 224 960.032 523.232 960.032 544 960 544Z" fill="#ffffff" p-id="6564"></path></svg>