<?xml version="1.0" standalone="no"?><!DOCTYPE svg PUBLIC "-//W3C//DTD SVG 1.1//EN" "http://www.w3.org/Graphics/SVG/1.1/DTD/svg11.dtd"><svg t="1769222497606" class="icon" viewBox="0 0 1024 1024" version="1.1" xmlns="http://www.w3.org/2000/svg" p-id="18211" xmlns:xlink="http://www.w3.org/1999/xlink" width="256" height="256"><path d="M176.128 777.0112a310.6816 310.6816 0 0 1-49.152-40.96 305.5616 305.5616 0 0 1 219.9552-518.144h259.4816L559.9232 163.84l62.0544-53.5552 163.84 189.3376H346.9312a224.1536 224.1536 0 0 0-124.928 409.6z" fill="#ffffff" p-id="18212"></path><path d="M402.1248 907.6736l-163.84-189.3376h438.8864A223.744 223.744 0 0 0 838.144 338.944a227.0208 227.0208 0 0 0-36.0448-30.72l45.9776-67.8912a316.1088 316.1088 0 0 1 49.0496 40.96 305.5616 305.5616 0 0 1-219.9552 518.144H417.6896l46.4896 53.76z" fill="#ffffff" p-id="18213"></path></svg>