<?xml version="1.0" standalone="no"?><!DOCTYPE svg PUBLIC "-//W3C//DTD SVG 1.1//EN" "http://www.w3.org/Graphics/SVG/1.1/DTD/svg11.dtd"><svg t="1769005370721" class="icon" viewBox="0 0 1024 1024" version="1.1" xmlns="http://www.w3.org/2000/svg" p-id="29301" xmlns:xlink="http://www.w3.org/1999/xlink" width="256" height="256"><path d="M512 936c234.169 0 424-189.831 424-424S746.169 88 512 88 88 277.831 88 512s189.831 424 424 424z m0 88C229.23 1024 0 794.77 0 512S229.23 0 512 0s512 229.23 512 512-229.23 512-512 512z" fill="#ffffff" p-id="29302"></path><path d="M556 256c0-24.3-19.7-44-44-44s-44 19.7-44 44v339.492c0 24.301 19.7 44 44 44s44-19.699 44-44V256z m-44 428c-35.346 0-64 28.654-64 64 0 35.346 28.654 64 64 64 35.346 0 64-28.654 64-64 0-35.346-28.654-64-64-64z" fill="#ffffff" p-id="29303"></path></svg>